HIERARCHY
ROOT Hips
{
	OFFSET 0.00000 0.00000 0.00000
	CHANNELS 6 Xposition Yposition Zposition Zrotation Yrotation Xrotation 
	JOINT LHipJoint
	{
		OFFSET 0 0 0
		CHANNELS 3 Zrotation Yrotation Xrotation
		JOINT LeftUpLeg
		{
			OFFSET 1.48416 -1.82041 0.59464
			CHANNELS 3 Zrotation Yrotation Xrotation
			JOINT LeftLeg
			{
				OFFSET 2.43280 -6.68407 0.00000
				CHANNELS 3 Zrotation Yrotation Xrotation
				JOINT LeftFoot
				{
					OFFSET 2.68325 -7.37216 0.00000
					CHANNELS 3 Zrotation Yrotation Xrotation
					JOINT LeftToeBase
					{
						OFFSET 0.15365 -0.42214 1.91990
						CHANNELS 3 Zrotation Yrotation Xrotation
						End Site
						{
							OFFSET 0.00000 -0.00000 0.99320
						}
					}
				}
			}
		}
	}
	JOINT RHipJoint
	{
		OFFSET 0 0 0
		CHANNELS 3 Zrotation Yrotation Xrotation
		JOINT RightUpLeg
		{
			OFFSET -1.70852 -1.82040 0.59464
			CHANNELS 3 Zrotation Yrotation Xrotation
			JOINT RightLeg
			{
				OFFSET -2.50396 -6.87957 0.00000
				CHANNELS 3 Zrotation Yrotation Xrotation
				JOINT RightFoot
				{
					OFFSET -2.67204 -7.34139 0.00000
					CHANNELS 3 Zrotation Yrotation Xrotation
					JOINT RightToeBase
					{
						OFFSET -0.17346 -0.47657 2.02009
						CHANNELS 3 Zrotation Yrotation Xrotation
						End Site
						{
							OFFSET -0.00000 -0.00000 1.04609
						}
					}
				}
			}
		}
	}
	JOINT LowerBack
	{
		OFFSET 0 0 0
		CHANNELS 3 Zrotation Yrotation Xrotation
		JOINT Spine
		{
			OFFSET -0.01022 1.99636 -0.30653
			CHANNELS 3 Zrotation Yrotation Xrotation
			JOINT Spine1
			{
				OFFSET -0.01683 2.01212 0.04808
				CHANNELS 3 Zrotation Yrotation Xrotation
				JOINT Neck
				{
					OFFSET 0 0 0
					CHANNELS 3 Zrotation Yrotation Xrotation
					JOINT Neck1
					{
						OFFSET -0.03080 1.91178 0.03911
						CHANNELS 3 Zrotation Yrotation Xrotation
						JOINT Head
						{
							OFFSET 0.10605 1.89839 -0.23433
							CHANNELS 3 Zrotation Yrotation Xrotation
							End Site
							{
								OFFSET 0.03474 1.92469 -0.08609
							}
						}
					}
				}
				JOINT LeftShoulder
				{
					OFFSET 0 0 0
					CHANNELS 3 Zrotation Yrotation Xrotation
					JOINT LeftArm
					{
						OFFSET 3.78977 1.27972 -0.24661
						CHANNELS 3 Zrotation Yrotation Xrotation
						JOINT LeftForeArm
						{
							OFFSET 5.64147 -0.00000 -0.00000
							CHANNELS 3 Zrotation Yrotation Xrotation
							JOINT LeftHand
							{
								OFFSET 2.86444 -0.00000 -0.00000
								CHANNELS 3 Zrotation Yrotation Xrotation
								JOINT LeftFingerBase
								{
									OFFSET 0 0 0
									CHANNELS 3 Zrotation Yrotation Xrotation
									JOINT LeftHandIndex1
									{
										OFFSET 0.72212 -0.00000 -0.00000
										CHANNELS 3 Zrotation Yrotation Xrotation
										End Site
										{
											OFFSET 0.58219 -0.00000 -0.00000
										}
									}
								}
								JOINT LThumb
								{
									OFFSET 0 0 0
									CHANNELS 3 Zrotation Yrotation Xrotation
									End Site
									{
										OFFSET 0.59108 -0.00000 0.59108
									}
								}
							}
						}
					}
				}
				JOINT RightShoulder
				{
					OFFSET 0 0 0
					CHANNELS 3 Zrotation Yrotation Xrotation
					JOINT RightArm
					{
						OFFSET -3.41176 1.18605 -0.57927
						CHANNELS 3 Zrotation Yrotation Xrotation
						JOINT RightForeArm
						{
							OFFSET -5.44729 -0.00000 -0.00000
							CHANNELS 3 Zrotation Yrotation Xrotation
							JOINT RightHand
							{
								OFFSET -3.08821 -0.00000 -0.00000
								CHANNELS 3 Zrotation Yrotation Xrotation
								JOINT RightFingerBase
								{
									OFFSET 0 0 0
									CHANNELS 3 Zrotation Yrotation Xrotation
									JOINT RightHandIndex1
									{
										OFFSET -0.82105 -0.00000 -0.00000
										CHANNELS 3 Zrotation Yrotation Xrotation
										End Site
										{
											OFFSET -0.66195 -0.00000 -0.00000
										}
									}
								}
								JOINT RThumb
								{
									OFFSET 0 0 0
									CHANNELS 3 Zrotation Yrotation Xrotation
									End Site
									{
										OFFSET -0.67206 -0.00000 0.67206
									}
								}
							}
						}
					}
				}
			}
		}
	}
}
MOTION
Frames: 6
Frame Time: .0083333
3.0201 17.6921 0.5759 -15.9507 87.5516 -17.1281 0.0000 0.0000 0.0000 -14.8110 2.5231 4.2172 0.1030 2.0692 5.6968 0.3496 -0.9323 -10.8798 0.1402 -2.4134 -6.6497 0.0000 0.0000 0.0000 19.9848 0.3816 0.0059 -0.6833 -5.2850 14.7233 -0.6164 5.9425 -14.0041 -0.1008 2.0470 -5.6356 4.7438 -0.5430 7.0858 -1.8252 -0.3656 -2.9143 -4.5522 -0.4411 -7.1013 -5.9919 -5.0899 -7.2299 8.1192 -7.2103 13.8275 3.0092 -3.2074 5.8758 -0.0000 0.0000 0.0000 -17.3403 3.2171 -24.8591 90.4812 -59.9991 -60.4167 -0.0000 0.0000 -13.4107 -8.2119 44.2752 -5.7530 -7.1250 0.0000 -0.0000 -59.1323 64.7392 -33.3564 -0.0000 0.0000 0.0000 46.2522 -35.0112 88.2592 -125.9694 54.4972 -90.5748 0.0000 0.0000 8.9424 3.5523 12.7302 0.7838 7.1250 -0.0000 -0.0000 21.0188 -17.6541 14.6800
3.0202 17.6917 0.5750 -14.5409 87.5865 -15.7237 0.0000 0.0000 0.0000 -14.8857 2.5449 4.3027 0.0979 2.0176 5.5542 0.3436 -0.9027 -10.7927 0.1469 -2.4699 -6.8062 0.0000 0.0000 0.0000 19.9086 0.3651 -0.0141 -0.6872 -5.2999 14.7658 -0.6172 5.9957 -14.0163 -0.0971 2.0098 -5.5328 4.6550 -0.5588 7.1066 -1.8221 -0.3939 -2.9404 -4.4950 -0.4524 -7.1431 -5.9921 -5.0806 -7.1885 8.0835 -7.1940 13.8321 3.0003 -3.2029 5.8675 -0.0000 0.0000 0.0000 -17.3115 3.3927 -24.6679 90.5732 -59.9988 -60.4964 -0.0000 0.0000 -13.5597 -8.0154 44.3167 -5.6185 -7.1250 0.0000 -0.0000 -59.0400 64.8203 -33.3897 -0.0000 0.0000 0.0000 46.1798 -34.9952 88.3371 -125.9591 54.5007 -90.5664 0.0000 0.0000 8.9118 3.4832 12.7594 0.7702 7.1250 -0.0000 -0.0000 20.9704 -17.6264 14.6548
3.0213 17.6921 0.5738 -14.6472 87.6127 -15.8397 0.0000 0.0000 0.0000 -14.8906 2.5585 4.3966 0.0926 1.9626 5.4022 0.3375 -0.8654 -10.7035 0.1488 -2.4862 -6.8513 0.0000 0.0000 0.0000 19.8986 0.3584 -0.0172 -0.6918 -5.3172 14.8156 -0.6186 6.0737 -14.0367 -0.0914 1.9500 -5.3676 4.6577 -0.5712 7.0899 -1.8243 -0.4116 -2.9195 -4.4963 -0.4601 -7.1132 -5.9878 -5.0861 -7.2341 8.1031 -7.2034 13.8286 3.0039 -3.2050 5.8756 -0.0000 -0.0000 0.0000 -17.3223 3.4628 -24.6316 90.6918 -59.9982 -60.5991 -0.0000 0.0000 -13.5939 -7.9025 44.3020 -5.5374 -7.1250 0.0000 -0.0000 -58.9205 64.8453 -33.3317 -0.0000 -0.0000 0.0000 46.1528 -34.9450 88.3584 -125.9783 54.4941 -90.5821 0.0000 0.0000 8.8852 3.4196 12.7464 0.7553 7.1250 -0.0000 -0.0000 20.9307 -17.6381 14.6169
3.0220 17.6927 0.5733 -13.9397 87.6330 -15.1353 0.0000 0.0000 0.0000 -14.9306 2.5708 4.4419 0.0897 1.9314 5.3161 0.3352 -0.8256 -10.6762 0.1612 -2.5864 -7.1294 0.0000 0.0000 0.0000 19.8589 0.3239 -0.0369 -0.6942 -5.3263 14.8415 -0.6175 6.0321 -14.0223 -0.1015 2.0546 -5.6567 4.6185 -0.5725 7.0535 -1.8325 -0.4199 -2.8816 -4.4812 -0.4601 -7.0519 -5.9477 -5.0893 -7.3121 8.0863 -7.2075 13.8170 2.9899 -3.2048 5.8837 0.0000 -0.0000 0.0000 -17.3318 3.4668 -24.6801 90.7624 -59.9978 -60.6602 -0.0000 0.0000 -13.6735 -7.8993 44.3596 -5.5408 -7.1250 0.0000 -0.0000 -59.0176 64.8786 -33.4464 0.0000 -0.0000 0.0000 46.1932 -34.8818 88.2982 -125.9442 54.5058 -90.5543 0.0000 0.0000 8.8856 3.4592 12.7565 0.7647 7.1250 -0.0000 -0.0000 20.9552 -17.6290 14.6412
3.0230 17.6923 0.5731 -13.0995 87.6348 -14.3169 0.0000 0.0000 0.0000 -14.9674 2.5900 4.4568 0.0903 1.9380 5.3344 0.3361 -0.8425 -10.6875 0.1609 -2.5843 -7.1235 0.0000 0.0000 0.0000 19.8176 0.2886 -0.0232 -0.6937 -5.3244 14.8361 -0.6168 6.0017 -14.0123 -0.1090 2.1285 -5.8610 4.5871 -0.5616 7.0355 -1.8457 -0.4106 -2.8449 -4.4783 -0.4523 -7.0010 -5.9136 -5.0931 -7.3531 8.0675 -7.2112 13.7764 2.9770 -3.2063 5.8765 -0.0000 -0.0000 0.0000 -17.3216 3.4120 -24.7075 90.6698 -59.9983 -60.5800 -0.0000 0.0000 -13.7638 -7.7006 44.4505 -5.4093 -7.1250 0.0000 -0.0000 -59.0101 64.9881 -33.5786 -0.0000 -0.0000 0.0000 46.2516 -34.8522 88.2276 -125.8864 54.5256 -90.5072 0.0000 0.0000 8.8857 3.4603 12.8361 0.7696 7.1250 -0.0000 -0.0000 20.9461 -17.5544 14.6712
3.0234 17.6922 0.5732 -13.7230 87.5940 -14.9371 0.0000 0.0000 0.0000 -14.9271 2.6220 4.4271 0.0915 1.9505 5.3689 0.3364 -0.8375 -10.6935 0.1613 -2.5878 -7.1332 0.0000 0.0000 0.0000 19.8587 0.3245 -0.0124 -0.6932 -5.3224 14.8304 -0.6177 5.9813 -14.0213 -0.1077 2.1164 -5.8273 4.6201 -0.5442 7.0354 -1.8412 -0.3838 -2.8460 -4.4957 -0.4405 -6.9995 -5.9277 -5.0957 -7.3659 8.1151 -7.2191 13.7698 2.9935 -3.2073 5.8795 0.0000 -0.0000 0.0000 -17.3197 3.3652 -24.7160 90.5494 -59.9989 -60.4758 -0.0000 0.0000 -13.8397 -7.4300 44.5174 -5.2242 -7.1250 0.0000 -0.0000 -58.9014 65.1057 -33.6443 0.0000 -0.0000 0.0000 46.2779 -34.8621 88.1919 -125.8804 54.5277 -90.5023 0.0000 0.0000 8.9065 3.4908 12.8550 0.7776 7.1250 -0.0000 -0.0000 20.9636 -17.5370 14.6940
